<svg xmlns="http://www.w3.org/2000/svg" viewBox="0 0 64 64">
  <defs>
    <linearGradient id="g" x1="0%" y1="0%" x2="100%" y2="100%">
      <stop offset="0%" stop-color="#34d399"/>
      <stop offset="100%" stop-color="#059669"/>
    </linearGradient>
  </defs>
  <rect width="64" height="64" rx="14" fill="#0f1119"/>
  <path d="M32 12c-12 4-18 16-16 28 1 4 3 7 6 10l2-2c-4-6-5-14-2-20 2-4 5-7 10-9v21c0 2 0 3 1 4l1 1 1-1c1-1 1-2 1-4V19c5 2 8 5 10 9 3 6 2 14-2 20l2 2c3-3 5-6 6-10 2-12-4-24-16-28h-4z" fill="url(#g)"/>
</svg>
